<svg xmlns="http://www.w3.org/2000/svg" xmlns:xlink="http://www.w3.org/1999/xlink" width="160" zoomAndPan="magnify" viewBox="0 0 120 44.999999" height="60" preserveAspectRatio="xMidYMid meet" version="1.0"><defs><g/></defs><g fill="#004aad" fill-opacity="1"><g transform="translate(0.794768, 42.758823)"><g><path d="M 19.125 -5.171875 L 13.234375 -5.171875 L 13.234375 -27.515625 L 7.140625 -27.515625 L 7.140625 -5.21875 L 1.25 -5.21875 L 1.25 -33.40625 L 19.125 -33.40625 Z M 19.125 -5.171875 "/></g></g></g><g fill="#004aad" fill-opacity="1"><g transform="translate(21.12684, 42.758823)"><g><path d="M 1.25 -33.40625 L 19.125 -33.40625 L 19.125 -5.171875 L 13.234375 -5.171875 L 13.234375 -16.359375 L 7.140625 -16.359375 L 7.140625 -5.21875 L 1.25 -5.21875 Z M 7.140625 -22.25 L 13.234375 -22.25 L 13.234375 -27.515625 L 7.140625 -27.515625 Z M 7.140625 -22.25 "/></g></g></g><g fill="#004aad" fill-opacity="1"><g transform="translate(41.458912, 42.758823)"><g><path d="M 19.125 -5.171875 L 13.234375 -5.171875 L 13.234375 -27.515625 L 7.140625 -27.515625 L 7.140625 -5.21875 L 1.25 -5.21875 L 1.25 -33.40625 L 19.125 -33.40625 Z M 19.125 -5.171875 "/></g></g></g><g fill="#004aad" fill-opacity="1"><g transform="translate(61.790983, 42.758823)"><g><path d="M 19.125 -5.171875 L 13.234375 -5.171875 L 13.234375 -27.515625 L 7.140625 -27.515625 L 7.140625 -5.21875 L 1.25 -5.21875 L 1.25 -33.40625 L 19.125 -33.40625 Z M 19.125 -5.171875 "/></g></g></g><g fill="#004aad" fill-opacity="1"><g transform="translate(82.123055, 42.758823)"><g><path d="M 7.140625 -5.171875 L 1.25 -5.171875 L 1.25 -33.40625 L 7.140625 -33.40625 Z M 7.140625 -5.171875 "/></g></g></g><g fill="#004aad" fill-opacity="1"><g transform="translate(90.472981, 42.758823)"><g><path d="M 1.296875 -33.40625 L 19.15625 -33.40625 L 19.15625 -16.359375 L 1.296875 -16.359375 L 1.296875 -22.25 L 13.28125 -22.25 L 13.28125 -27.515625 L 1.296875 -27.515625 Z M 1.25 -5.171875 L 1.25 -11.0625 L 7.140625 -11.0625 L 7.140625 -5.171875 Z M 1.25 -5.171875 "/></g></g></g><g fill="#004aad" fill-opacity="1"><g transform="translate(110.846806, 42.758823)"><g><path d="M 1.25 -33.40625 L 7.140625 -33.40625 L 7.140625 -17.03125 L 1.25 -17.03125 Z M 7.140625 -11.0625 L 7.140625 -5.171875 L 1.25 -5.171875 L 1.25 -11.0625 Z M 7.140625 -11.0625 "/></g></g></g></svg>