<svg width="2036" height="649" viewBox="0 0 2036 649" fill="none" xmlns="http://www.w3.org/2000/svg">
<rect y="67" width="100" height="400" fill="#FFFF"/>
<rect x="179" y="67" width="100" height="400" fill="#FFFF"/>
<rect width="279" height="100" fill="#FFFF"/>
<rect x="342" y="67" width="100" height="400" fill="#FFFF"/>
<rect x="521" y="67" width="100" height="400" fill="#FFFF"/>
<rect x="342" width="279" height="100" fill="#FFFF"/>
<rect x="342" y="187" width="279" height="100" fill="#FFFF"/>
<rect x="683" y="67" width="100" height="400" fill="#FFFF"/>
<rect x="862" y="67" width="100" height="400" fill="#FFFF"/>
<rect x="683" width="279" height="100" fill="#FFFF"/>
<rect x="1041" y="67" width="100" height="400" fill="#FFFF"/>
<rect x="1220" y="67" width="100" height="400" fill="#FFFF"/>
<rect x="1399" width="100" height="467" fill="#FFFF"/>
<rect x="1041" width="279" height="100" fill="#FFFF"/>
<rect x="1936" width="100" height="287" fill="#FFFF"/>
<rect x="1578" width="279" height="100" fill="#FFFF"/>
<rect x="1757" y="287" width="287" height="100" transform="rotate(-90 1757 287)" fill="#FFFF"/>
<rect x="1578" y="467" width="100" height="100" transform="rotate(-90 1578 467)" fill="#FFFF"/>
<rect x="1936" y="467" width="100" height="100" transform="rotate(-90 1936 467)" fill="#FFFF"/>
<rect x="1578" y="187" width="279" height="100" fill="#FFFF"/>
<rect y="518" width="149" height="27" fill="#FFFF"/>
<rect y="568" width="149" height="27" fill="#FFFF"/>
<rect x="96" y="594" width="76" height="53" transform="rotate(-90 96 594)" fill="#FFFF"/>
<rect y="518" width="53" height="127" fill="#FFFF"/>
<rect x="1449" y="519" width="47" height="130" fill="#FFFF"/>
<rect x="315" y="518" width="53" height="127" fill="#FFFF"/>
<rect x="157" y="536" width="54" height="109" fill="#FFFF"/>
<rect x="253" y="536" width="53" height="109" fill="#FFFF"/>
<rect x="157" y="518" width="149" height="27" fill="#FFFF"/>
<rect x="315" y="518" width="149" height="27" fill="#FFFF"/>
<rect x="157" y="569" width="149" height="27" fill="#FFFF"/>
<rect x="472" y="536" width="53" height="109" fill="#FFFF"/>
<rect x="568" y="536" width="53" height="109" fill="#FFFF"/>
<rect x="1544" y="547" width="49" height="75" fill="#FFFF"/>
<rect x="472" y="518" width="149" height="27" fill="#FFFF"/>
<rect x="1903" y="519" width="133" height="28" fill="#FFFF"/>
<rect x="1903" y="571" width="133" height="27" fill="#FFFF"/>
<rect x="1903" y="620" width="133" height="28" fill="#FFFF"/>
<rect x="472" y="569" width="149" height="27" fill="#FFFF"/>
<rect x="410" y="572" width="27" height="54" transform="rotate(-90 410 572)" fill="#FFFF"/>
<rect x="357" y="600" width="28" height="53" transform="rotate(-90 357 600)" fill="#FFFF"/>
<rect x="1496" y="649" width="28" height="48" transform="rotate(-90 1496 649)" fill="#FFFF"/>
<rect x="1496" y="547" width="28" height="48" transform="rotate(-90 1496 547)" fill="#FFFF"/>
<rect x="1600" y="518" width="48" height="130" fill="#FFFF"/>
<rect x="1750" y="518" width="49" height="78" fill="#FFFF"/>
<rect x="1799" y="596" width="49" height="52" fill="#FFFF"/>
<rect x="1848" y="518" width="47" height="79" fill="#FFFF"/>
<rect x="1648" y="648" width="28" height="48" transform="rotate(-90 1648 648)" fill="#FFFF"/>
<rect x="1648" y="546" width="28" height="48" transform="rotate(-90 1648 546)" fill="#FFFF"/>
<rect x="1696" y="546" width="28" height="48" transform="rotate(-90 1696 546)" fill="#FFFF"/>
<rect x="1648" y="596" width="27" height="48" transform="rotate(-90 1648 596)" fill="#FFFF"/>
<rect x="1696" y="596" width="27" height="48" transform="rotate(-90 1696 596)" fill="#FFFF"/>
<rect x="1903" y="574" width="27" height="47" transform="rotate(-90 1903 574)" fill="#FFFF"/>
<rect x="1989" y="621" width="28" height="47" transform="rotate(-90 1989 621)" fill="#FFFF"/>
<rect x="1696" y="648" width="28" height="48" transform="rotate(-90 1696 648)" fill="#FFFF"/>
<rect x="410" y="627" width="27" height="54" transform="rotate(-90 410 627)" fill="#FFFF"/>
<rect x="410" y="645" width="27" height="54" transform="rotate(-90 410 645)" fill="#FFFF"/>
</svg>
